<svg xmlns="http://www.w3.org/2000/svg" xmlns:xlink="http://www.w3.org/1999/xlink">
	<symbol class="bi bi-cloud-arrow-down" id="export" viewBox="0 0 16 16">
		<path d="M7.646 10.854a.5.5 0 0 0 .708 0l2-2a.5.5 0 0 0-.708-.708L8.5 9.293V5.5a.5.5 0 0 0-1 0v3.793L6.354 8.146a.5.5 0 1 0-.708.708l2 2z" fill-rule="evenodd"/>
		<path d="M4.406 3.342A5.53 5.53 0 0 1 8 2c2.69 0 4.923 2 5.166 4.579C14.758 6.804 16 8.137 16 9.773 16 11.569 14.502 13 12.687 13H3.781C1.708 13 0 11.366 0 9.318c0-1.763 1.266-3.223 2.942-3.593.143-.863.698-1.723 1.464-2.383zm.653.757c-.757.653-1.153 1.44-1.153 2.056v.448l-.445.049C2.064 6.805 1 7.952 1 9.318 1 10.785 2.23 12 3.781 12h8.906C13.98 12 15 10.988 15 9.773c0-1.216-1.02-2.228-2.313-2.228h-.5v-.5C12.188 4.825 10.328 3 8 3a4.53 4.53 0 0 0-2.941 1.1z"/>
	</symbol>
	<symbol class="bi bi-cloud-arrow-down-fill" id="cloud-arrow-down-fill" viewBox="0 0 16 16">
		<path d="M8 2a5.53 5.53 0 0 0-3.594 1.342c-.766.66-1.321 1.52-1.464 2.383C1.266 6.095 0 7.555 0 9.318 0 11.366 1.708 13 3.781 13h8.906C14.502 13 16 11.57 16 9.773c0-1.636-1.242-2.969-2.834-3.194C12.923 3.999 10.69 2 8 2zm2.354 6.854-2 2a.5.5 0 0 1-.708 0l-2-2a.5.5 0 1 1 .708-.708L7.5 9.293V5.5a.5.5 0 0 1 1 0v3.793l1.146-1.147a.5.5 0 0 1 .708.708z"/>
	</symbol>
	<symbol class="bi bi-cloud-arrow-up" id="import" viewBox="0 0 16 16">
		<path d="M7.646 5.146a.5.5 0 0 1 .708 0l2 2a.5.5 0 0 1-.708.708L8.5 6.707V10.5a.5.5 0 0 1-1 0V6.707L6.354 7.854a.5.5 0 1 1-.708-.708l2-2z" fill-rule="evenodd"/>
		<path d="M4.406 3.342A5.53 5.53 0 0 1 8 2c2.69 0 4.923 2 5.166 4.579C14.758 6.804 16 8.137 16 9.773 16 11.569 14.502 13 12.687 13H3.781C1.708 13 0 11.366 0 9.318c0-1.763 1.266-3.223 2.942-3.593.143-.863.698-1.723 1.464-2.383zm.653.757c-.757.653-1.153 1.44-1.153 2.056v.448l-.445.049C2.064 6.805 1 7.952 1 9.318 1 10.785 2.23 12 3.781 12h8.906C13.98 12 15 10.988 15 9.773c0-1.216-1.02-2.228-2.313-2.228h-.5v-.5C12.188 4.825 10.328 3 8 3a4.53 4.53 0 0 0-2.941 1.1z"/>
	</symbol>
	<symbol class="bi bi-cloud-arrow-up-fill" id="cloud-arrow-up-fill" viewBox="0 0 16 16">
		<path d="M8 2a5.53 5.53 0 0 0-3.594 1.342c-.766.66-1.321 1.52-1.464 2.383C1.266 6.095 0 7.555 0 9.318 0 11.366 1.708 13 3.781 13h8.906C14.502 13 16 11.57 16 9.773c0-1.636-1.242-2.969-2.834-3.194C12.923 3.999 10.69 2 8 2zm2.354 5.146a.5.5 0 0 1-.708.708L8.5 6.707V10.5a.5.5 0 0 1-1 0V6.707L6.354 7.854a.5.5 0 1 1-.708-.708l2-2a.5.5 0 0 1 .708 0l2 2z"/>
	</symbol>
	<symbol class="bi bi-gear" id="orgs" viewBox="0 0 16 16">
		<path d="M8 4.754a3.246 3.246 0 1 0 0 6.492 3.246 3.246 0 0 0 0-6.492zM5.754 8a2.246 2.246 0 1 1 4.492 0 2.246 2.246 0 0 1-4.492 0z"/>
		<path d="M9.796 1.343c-.527-1.79-3.065-1.79-3.592 0l-.094.319a.873.873 0 0 1-1.255.52l-.292-.16c-1.64-.892-3.433.902-2.54 2.541l.159.292a.873.873 0 0 1-.52 1.255l-.319.094c-1.79.527-1.79 3.065 0 3.592l.319.094a.873.873 0 0 1 .52 1.255l-.16.292c-.892 1.64.901 3.434 2.541 2.54l.292-.159a.873.873 0 0 1 1.255.52l.094.319c.527 1.79 3.065 1.79 3.592 0l.094-.319a.873.873 0 0 1 1.255-.52l.292.16c1.64.893 3.434-.902 2.54-2.541l-.159-.292a.873.873 0 0 1 .52-1.255l.319-.094c1.79-.527 1.79-3.065 0-3.592l-.319-.094a.873.873 0 0 1-.52-1.255l.16-.292c.893-1.64-.902-3.433-2.541-2.54l-.292.159a.873.873 0 0 1-1.255-.52l-.094-.319zm-2.633.283c.246-.835 1.428-.835 1.674 0l.094.319a1.873 1.873 0 0 0 2.693 1.115l.291-.16c.764-.415 1.6.42 1.184 1.185l-.159.292a1.873 1.873 0 0 0 1.116 2.692l.318.094c.835.246.835 1.428 0 1.674l-.319.094a1.873 1.873 0 0 0-1.115 2.693l.16.291c.415.764-.42 1.6-1.185 1.184l-.291-.159a1.873 1.873 0 0 0-2.693 1.116l-.094.318c-.246.835-1.428.835-1.674 0l-.094-.319a1.873 1.873 0 0 0-2.692-1.115l-.292.16c-.764.415-1.6-.42-1.184-1.185l.159-.291A1.873 1.873 0 0 0 1.945 8.93l-.319-.094c-.835-.246-.835-1.428 0-1.674l.319-.094A1.873 1.873 0 0 0 3.06 4.377l-.16-.292c-.415-.764.42-1.6 1.185-1.184l.292.159a1.873 1.873 0 0 0 2.692-1.115l.094-.319z"/>
	</symbol>
	<symbol class="bi bi-gear-fill" id="gear-fill" viewBox="0 0 16 16">
		<path d="M9.405 1.05c-.413-1.4-2.397-1.4-2.81 0l-.1.34a1.464 1.464 0 0 1-2.105.872l-.31-.17c-1.283-.698-2.686.705-1.987 1.987l.169.311c.446.82.023 1.841-.872 2.105l-.34.1c-1.4.413-1.4 2.397 0 2.81l.34.1a1.464 1.464 0 0 1 .872 2.105l-.17.31c-.698 1.283.705 2.686 1.987 1.987l.311-.169a1.464 1.464 0 0 1 2.105.872l.1.34c.413 1.4 2.397 1.4 2.81 0l.1-.34a1.464 1.464 0 0 1 2.105-.872l.31.17c1.283.698 2.686-.705 1.987-1.987l-.169-.311a1.464 1.464 0 0 1 .872-2.105l.34-.1c1.4-.413 1.4-2.397 0-2.81l-.34-.1a1.464 1.464 0 0 1-.872-2.105l.17-.31c.698-1.283-.705-2.686-1.987-1.987l-.311.169a1.464 1.464 0 0 1-2.105-.872l-.1-.34zM8 10.93a2.929 2.929 0 1 1 0-5.86 2.929 2.929 0 0 1 0 5.858z"/>
	</symbol>
	<symbol class="bi bi-list" id="browse" viewBox="0 0 16 16">
		<path d="M2.5 12a.5.5 0 0 1 .5-.5h10a.5.5 0 0 1 0 1H3a.5.5 0 0 1-.5-.5zm0-4a.5.5 0 0 1 .5-.5h10a.5.5 0 0 1 0 1H3a.5.5 0 0 1-.5-.5zm0-4a.5.5 0 0 1 .5-.5h10a.5.5 0 0 1 0 1H3a.5.5 0 0 1-.5-.5z" fill-rule="evenodd"/>
	</symbol>
	<symbol class="bi bi-clock-history" id="events" viewBox="0 0 16 16">
		<path d="M8.515 1.019A7 7 0 0 0 8 1V0a8 8 0 0 1 .589.022l-.074.997zm2.004.45a7.003 7.003 0 0 0-.985-.299l.219-.976c.383.086.76.2 1.126.342l-.36.933zm1.37.71a7.01 7.01 0 0 0-.439-.27l.493-.87a8.025 8.025 0 0 1 .979.654l-.615.789a6.996 6.996 0 0 0-.418-.302zm1.834 1.79a6.99 6.99 0 0 0-.653-.796l.724-.69c.27.285.52.59.747.91l-.818.576zm.744 1.352a7.08 7.08 0 0 0-.214-.468l.893-.45a7.976 7.976 0 0 1 .45 1.088l-.95.313a7.023 7.023 0 0 0-.179-.483zm.53 2.507a6.991 6.991 0 0 0-.1-1.025l.985-.17c.067.386.106.778.116 1.17l-1 .025zm-.131 1.538c.033-.17.06-.339.081-.51l.993.123a7.957 7.957 0 0 1-.23 1.155l-.964-.267c.046-.165.086-.332.12-.501zm-.952 2.379c.184-.29.346-.594.486-.908l.914.405c-.16.36-.345.706-.555 1.038l-.845-.535zm-.964 1.205c.122-.122.239-.248.35-.378l.758.653a8.073 8.073 0 0 1-.401.432l-.707-.707z"/>
		<path d="M8 1a7 7 0 1 0 4.95 11.95l.707.707A8.001 8.001 0 1 1 8 0v1z"/>
		<path d="M7.5 3a.5.5 0 0 1 .5.5v5.21l3.248 1.856a.5.5 0 0 1-.496.868l-3.5-2A.5.5 0 0 1 7 9V3.5a.5.5 0 0 1 .5-.5z"/>
	</symbol>
	<symbol class="bi bi-diagram-2-fill" viewBox="0 0 16 16" id="roles">
		<path fill-rule="evenodd" d="M6 3.5A1.5 1.5 0 0 1 7.5 2h1A1.5 1.5 0 0 1 10 3.5v1A1.5 1.5 0 0 1 8.5 6v1H11a.5.5 0 0 1 .5.5v1a.5.5 0 0 1-1 0V8h-5v.5a.5.5 0 0 1-1 0v-1A.5.5 0 0 1 5 7h2.5V6A1.5 1.5 0 0 1 6 4.5v-1zm-3 8A1.5 1.5 0 0 1 4.5 10h1A1.5 1.5 0 0 1 7 11.5v1A1.5 1.5 0 0 1 5.5 14h-1A1.5 1.5 0 0 1 3 12.5v-1zm6 0a1.5 1.5 0 0 1 1.5-1.5h1a1.5 1.5 0 0 1 1.5 1.5v1a1.5 1.5 0 0 1-1.5 1.5h-1A1.5 1.5 0 0 1 9 12.5v-1z"/>
	</symbol>
	<symbol class="bi bi-download" id="download" viewBox="0 0 16 16">
		<path d="M.5 9.9a.5.5 0 0 1 .5.5v2.5a1 1 0 0 0 1 1h12a1 1 0 0 0 1-1v-2.5a.5.5 0 0 1 1 0v2.5a2 2 0 0 1-2 2H2a2 2 0 0 1-2-2v-2.5a.5.5 0 0 1 .5-.5z"/>
		<path d="M7.646 11.854a.5.5 0 0 0 .708 0l3-3a.5.5 0 0 0-.708-.708L8.5 10.293V1.5a.5.5 0 0 0-1 0v8.793L5.354 8.146a.5.5 0 1 0-.708.708l3 3z"/>
	</symbol>
	<symbol class="bi bi-people" id="users" viewBox="0 0 16 16">
		<path d="M15 14s1 0 1-1-1-4-5-4-5 3-5 4 1 1 1 1h8zm-7.978-1A.261.261 0 0 1 7 12.996c.001-.264.167-1.03.76-1.72C8.312 10.629 9.282 10 11 10c1.717 0 2.687.63 3.24 1.276.593.69.758 1.457.76 1.72l-.008.002a.274.274 0 0 1-.014.002H7.022zM11 7a2 2 0 1 0 0-4 2 2 0 0 0 0 4zm3-2a3 3 0 1 1-6 0 3 3 0 0 1 6 0zM6.936 9.28a5.88 5.88 0 0 0-1.23-.247A7.35 7.35 0 0 0 5 9c-4 0-5 3-5 4 0 .667.333 1 1 1h4.216A2.238 2.238 0 0 1 5 13c0-1.01.377-2.042 1.09-2.904.243-.294.526-.569.846-.816zM4.92 10A5.493 5.493 0 0 0 4 13H1c0-.26.164-1.03.76-1.724.545-.636 1.492-1.256 3.16-1.275zM1.5 5.5a3 3 0 1 1 6 0 3 3 0 0 1-6 0zm3-2a2 2 0 1 0 0 4 2 2 0 0 0 0-4z"/>
	</symbol>
	<symbol class="bi bi-people-fill" id="users" viewBox="0 0 16 16">
		<path d="M7 14s-1 0-1-1 1-4 5-4 5 3 5 4-1 1-1 1H7zm4-6a3 3 0 1 0 0-6 3 3 0 0 0 0 6z"/>
		<path d="M5.216 14A2.238 2.238 0 0 1 5 13c0-1.355.68-2.75 1.936-3.72A6.325 6.325 0 0 0 5 9c-4 0-5 3-5 4s1 1 1 1h4.216z" fill-rule="evenodd"/>
		<path d="M4.5 8a2.5 2.5 0 1 0 0-5 2.5 2.5 0 0 0 0 5z"/>
	</symbol>
	<symbol class="bi bi-shield-lock" id="shield-lock" viewBox="0 0 16 16">
		<path d="M5.338 1.59a61.44 61.44 0 0 0-2.837.856.481.481 0 0 0-.328.39c-.554 4.157.726 7.19 2.253 9.188a10.725 10.725 0 0 0 2.287 2.233c.346.244.652.42.893.533.12.057.218.095.293.118a.55.55 0 0 0 .101.025.615.615 0 0 0 .1-.025c.076-.023.174-.061.294-.118.24-.113.547-.29.893-.533a10.726 10.726 0 0 0 2.287-2.233c1.527-1.997 2.807-5.031 2.253-9.188a.48.48 0 0 0-.328-.39c-.651-.213-1.75-.56-2.837-.855C9.552 1.29 8.531 1.067 8 1.067c-.53 0-1.552.223-2.662.524zM5.072.56C6.157.265 7.31 0 8 0s1.843.265 2.928.56c1.11.3 2.229.655 2.887.87a1.54 1.54 0 0 1 1.044 1.262c.596 4.477-.787 7.795-2.465 9.99a11.775 11.775 0 0 1-2.517 2.453 7.159 7.159 0 0 1-1.048.625c-.28.132-.581.24-.829.24s-.548-.108-.829-.24a7.158 7.158 0 0 1-1.048-.625 11.777 11.777 0 0 1-2.517-2.453C1.928 10.487.545 7.169 1.141 2.692A1.54 1.54 0 0 1 2.185 1.43 62.456 62.456 0 0 1 5.072.56z"/>
		<path d="M9.5 6.5a1.5 1.5 0 0 1-1 1.415l.385 1.99a.5.5 0 0 1-.491.595h-.788a.5.5 0 0 1-.49-.595l.384-1.99a1.5 1.5 0 1 1 2-1.415z"/>
	</symbol>
	<symbol class="bi bi-shield-lock-fill" id="oauth" viewBox="0 0 16 16">
		<path d="M8 0c-.69 0-1.843.265-2.928.56-1.11.3-2.229.655-2.887.87a1.54 1.54 0 0 0-1.044 1.262c-.596 4.477.787 7.795 2.465 9.99a11.777 11.777 0 0 0 2.517 2.453c.386.273.744.482 1.048.625.28.132.581.24.829.24s.548-.108.829-.24a7.159 7.159 0 0 0 1.048-.625 11.775 11.775 0 0 0 2.517-2.453c1.678-2.195 3.061-5.513 2.465-9.99a1.541 1.541 0 0 0-1.044-1.263 62.467 62.467 0 0 0-2.887-.87C9.843.266 8.69 0 8 0zm0 5a1.5 1.5 0 0 1 .5 2.915l.385 1.99a.5.5 0 0 1-.491.595h-.788a.5.5 0 0 1-.49-.595l.384-1.99A1.5 1.5 0 0 1 8 5z" fill-rule="evenodd"/>
	</symbol>
	<symbol class="bi bi-table" id="events" viewBox="0 0 16 16">
		<path d="M0 2a2 2 0 0 1 2-2h12a2 2 0 0 1 2 2v12a2 2 0 0 1-2 2H2a2 2 0 0 1-2-2V2zm15 2h-4v3h4V4zm0 4h-4v3h4V8zm0 4h-4v3h3a1 1 0 0 0 1-1v-2zm-5 3v-3H6v3h4zm-5 0v-3H1v2a1 1 0 0 0 1 1h3zm-4-4h4V8H1v3zm0-4h4V4H1v3zm5-3v3h4V4H6zm4 4H6v3h4V8z"/>
	</symbol>
	<symbol class="bi bi-display" id="display" viewBox="0 0 16 16">
       <path d="M0 4s0-2 2-2h12s2 0 2 2v6s0 2-2 2h-4q0 1 .25 1.5H11a.5.5 0 0 1 0 1H5a.5.5 0 0 1 0-1h.75Q6 13 6 12H2s-2 0-2-2zm1.398-.855a.76.76 0 0 0-.254.302A1.5 1.5 0 0 0 1 4.01V10c0 .325.078.502.145.602q.105.156.302.254a1.5 1.5 0 0 0 .538.143L2.01 11H14c.325 0 .502-.078.602-.145a.76.76 0 0 0 .254-.302 1.5 1.5 0 0 0 .143-.538L15 9.99V4c0-.325-.078-.502-.145-.602a.76.76 0 0 0-.302-.254A1.5 1.5 0 0 0 13.99 3H2c-.325 0-.502.078-.602.145"/>
    </symbol>
	<symbol class="bi bi-tag" id="dispositions" viewBox="0 0 16 16">
		<path d="M6 4.5a1.5 1.5 0 1 1-3 0 1.5 1.5 0 0 1 3 0zm-1 0a.5.5 0 1 0-1 0 .5.5 0 0 0 1 0z"/>
		<path d="M2 1h4.586a1 1 0 0 1 .707.293l7 7a1 1 0 0 1 0 1.414l-4.586 4.586a1 1 0 0 1-1.414 0l-7-7A1 1 0 0 1 1 6.586V2a1 1 0 0 1 1-1zm0 5.586 7 7L13.586 9l-7-7H2v4.586z"/>
	</symbol>
	<symbol class="bi bi-tags-fill" id="skill_categories" viewBox="0 0 16 16">
		<path d="M2 2a1 1 0 0 1 1-1h4.586a1 1 0 0 1 .707.293l7 7a1 1 0 0 1 0 1.414l-4.586 4.586a1 1 0 0 1-1.414 0l-7-7A1 1 0 0 1 2 6.586V2zm3.5 4a1.5 1.5 0 1 0 0-3 1.5 1.5 0 0 0 0 3z"/>
		<path d="M1.293 7.793A1 1 0 0 1 1 7.086V2a1 1 0 0 0-1 1v4.586a1 1 0 0 0 .293.707l7 7a1 1 0 0 0 1.414 0l.043-.043-7.457-7.457z"/>
	</symbol>
	<symbol class="bi bi-tag-fill" id="tag-fill" viewBox="0 0 16 16">
		<path d="M2 1a1 1 0 0 0-1 1v4.586a1 1 0 0 0 .293.707l7 7a1 1 0 0 0 1.414 0l4.586-4.586a1 1 0 0 0 0-1.414l-7-7A1 1 0 0 0 6.586 1H2zm4 3.5a1.5 1.5 0 1 1-3 0 1.5 1.5 0 0 1 3 0z"/>
	</symbol>
	<symbol class="bi bi-tags" id="tags" viewBox="0 0 16 16">
		<path d="M3 2v4.586l7 7L14.586 9l-7-7H3zM2 2a1 1 0 0 1 1-1h4.586a1 1 0 0 1 .707.293l7 7a1 1 0 0 1 0 1.414l-4.586 4.586a1 1 0 0 1-1.414 0l-7-7A1 1 0 0 1 2 6.586V2z"/>
		<path d="M5.5 5a.5.5 0 1 1 0-1 .5.5 0 0 1 0 1zm0 1a1.5 1.5 0 1 0 0-3 1.5 1.5 0 0 0 0 3zM1 7.086a1 1 0 0 0 .293.707L8.75 15.25l-.043.043a1 1 0 0 1-1.414 0l-7-7A1 1 0 0 1 0 7.586V3a1 1 0 0 1 1-1v5.086z"/>
	</symbol>
	<symbol class="bi bi-tags-fill" id="skill_profiles" viewBox="0 0 16 16">
		<path d="M2 2a1 1 0 0 1 1-1h4.586a1 1 0 0 1 .707.293l7 7a1 1 0 0 1 0 1.414l-4.586 4.586a1 1 0 0 1-1.414 0l-7-7A1 1 0 0 1 2 6.586V2zm3.5 4a1.5 1.5 0 1 0 0-3 1.5 1.5 0 0 0 0 3z"/>
		<path d="M1.293 7.793A1 1 0 0 1 1 7.086V2a1 1 0 0 0-1 1v4.586a1 1 0 0 0 .293.707l7 7a1 1 0 0 0 1.414 0l.043-.043-7.457-7.457z"/>
	</symbol>
	<symbol class="bi bi-people" id="teams" viewBox="0 0 16 16">
		<path d="M15 14s1 0 1-1-1-4-5-4-5 3-5 4 1 1 1 1h8Zm-7.978-1A.261.261 0 0 1 7 12.996c.001-.264.167-1.03.76-1.72C8.312 10.629 9.282 10 11 10c1.717 0 2.687.63 3.24 1.276.593.69.758 1.457.76 1.72l-.008.002a.274.274 0 0 1-.014.002H7.022ZM11 7a2 2 0 1 0 0-4 2 2 0 0 0 0 4Zm3-2a3 3 0 1 1-6 0 3 3 0 0 1 6 0ZM6.936 9.28a5.88 5.88 0 0 0-1.23-.247A7.35 7.35 0 0 0 5 9c-4 0-5 3-5 4 0 .667.333 1 1 1h4.216A2.238 2.238 0 0 1 5 13c0-1.01.377-2.042 1.09-2.904.243-.294.526-.569.846-.816ZM4.92 10A5.493 5.493 0 0 0 4 13H1c0-.26.164-1.03.76-1.724.545-.636 1.492-1.256 3.16-1.275ZM1.5 5.5a3 3 0 1 1 6 0 3 3 0 0 1-6 0Zm3-2a2 2 0 1 0 0 4 2 2 0 0 0 0-4Z"/>
	</symbol>
	<symbol class="bi bi-door-open" id="entry_points" viewBox="0 0 16 16">
		<path d="M8.5 10c-.276 0-.5-.448-.5-1s.224-1 .5-1 .5.448.5 1-.224 1-.5 1z"/>
  		<path d="M10.828.122A.5.5 0 0 1 11 .5V1h.5A1.5 1.5 0 0 1 13 2.5V15h1.5a.5.5 0 0 1 0 1h-13a.5.5 0 0 1 0-1H3V1.5a.5.5 0 0 1 .43-.495l7-1a.5.5 0 0 1 .398.117zM11.5 2H11v13h1V2.5a.5.5 0 0 0-.5-.5zM4 1.934V15h6V1.077l-6 .857z"/>
	</symbol>
	<symbol class="bi bi-bezier2" id="queues" viewBox="0 0 16 16">
		<path fill-rule="evenodd" d="M1 2.5A1.5 1.5 0 0 1 2.5 1h1A1.5 1.5 0 0 1 5 2.5h4.134a1 1 0 1 1 0 1h-2.01c.18.18.34.381.484.605.638.992.892 2.354.892 3.895 0 1.993.257 3.092.713 3.7.356.476.895.721 1.787.784A1.5 1.5 0 0 1 12.5 11h1a1.5 1.5 0 0 1 1.5 1.5v1a1.5 1.5 0 0 1-1.5 1.5h-1a1.5 1.5 0 0 1-1.5-1.5H6.866a1 1 0 1 1 0-1h1.711a2.839 2.839 0 0 1-.165-.2C7.743 11.407 7.5 10.007 7.5 8c0-1.46-.246-2.597-.733-3.355-.39-.605-.952-1-1.767-1.112A1.5 1.5 0 0 1 3.5 5h-1A1.5 1.5 0 0 1 1 3.5v-1zM2.5 2a.5.5 0 0 0-.5.5v1a.5.5 0 0 0 .5.5h1a.5.5 0 0 0 .5-.5v-1a.5.5 0 0 0-.5-.5h-1zm10 10a.5.5 0 0 0-.5.5v1a.5.5 0 0 0 .5.5h1a.5.5 0 0 0 .5-.5v-1a.5.5 0 0 0-.5-.5h-1z"/>
	</symbol>
	<symbol class="bi bi-signpost-2" id="hunt_groups" viewBox="0 0 16 16">
		<path d="M7 1.414V2H2a1 1 0 0 0-1 1v2a1 1 0 0 0 1 1h5v1H2.5a1 1 0 0 0-.8.4L.725 8.7a.5.5 0 0 0 0 .6l.975 1.3a1 1 0 0 0 .8.4H7v5h2v-5h5a1 1 0 0 0 1-1V8a1 1 0 0 0-1-1H9V6h4.5a1 1 0 0 0 .8-.4l.975-1.3a.5.5 0 0 0 0-.6L14.3 2.4a1 1 0 0 0-.8-.4H9v-.586a1 1 0 0 0-2 0zM13.5 3l.75 1-.75 1H2V3h11.5zm.5 5v2H2.5l-.75-1 .75-1H14z"/>
	</symbol>
	<symbol class="bi bi-plus" id="plus" viewBox="0 0 16 16">
		<path d="M8 4a.5.5 0 0 1 .5.5v3h3a.5.5 0 0 1 0 1h-3v3a.5.5 0 0 1-1 0v-3h-3a.5.5 0 0 1 0-1h3v-3A.5.5 0 0 1 8 4z"/>
	</symbol>
	<symbol class="bi bi-pencil-square" id="pencil-square" viewBox="0 0 16 16">
		<path d="M15.502 1.94a.5.5 0 0 1 0 .706L14.459 3.69l-2-2L13.502.646a.5.5 0 0 1 .707 0l1.293 1.293zm-1.75 2.456-2-2L4.939 9.21a.5.5 0 0 0-.121.196l-.805 2.414a.25.25 0 0 0 .316.316l2.414-.805a.5.5 0 0 0 .196-.12l6.813-6.814z"/>
		<path d="M1 13.5A1.5 1.5 0 0 0 2.5 15h11a1.5 1.5 0 0 0 1.5-1.5v-6a.5.5 0 0 0-1 0v6a.5.5 0 0 1-.5.5h-11a.5.5 0 0 1-.5-.5v-11a.5.5 0 0 1 .5-.5H9a.5.5 0 0 0 0-1H2.5A1.5 1.5 0 0 0 1 2.5v11z" fill-rule="evenodd"/>
	</symbol>
	<symbol class="bi bi-trash3" id="trash3" viewBox="0 0 16 16">
		<path d="M6.5 1h3a.5.5 0 0 1 .5.5v1H6v-1a.5.5 0 0 1 .5-.5ZM11 2.5v-1A1.5 1.5 0 0 0 9.5 0h-3A1.5 1.5 0 0 0 5 1.5v1H2.506a.58.58 0 0 0-.01 0H1.5a.5.5 0 0 0 0 1h.538l.853 10.66A2 2 0 0 0 4.885 16h6.23a2 2 0 0 0 1.994-1.84l.853-10.66h.538a.5.5 0 0 0 0-1h-.995a.59.59 0 0 0-.01 0H11Zm1.958 1-.846 10.58a1 1 0 0 1-.997.92h-6.23a1 1 0 0 1-.997-.92L3.042 3.5h9.916Zm-7.487 1a.5.5 0 0 1 .528.47l.5 8.5a.5.5 0 0 1-.998.06L5 5.03a.5.5 0 0 1 .47-.53Zm5.058 0a.5.5 0 0 1 .47.53l-.5 8.5a.5.5 0 1 1-.998-.06l.5-8.5a.5.5 0 0 1 .528-.47ZM8 4.5a.5.5 0 0 1 .5.5v8.5a.5.5 0 0 1-1 0V5a.5.5 0 0 1 .5-.5Z"/>
	</symbol>
	<symbol class="bi bi-trash3-fill" id="trash3-fill" viewBox="0 0 16 16">
		<path d="M11 1.5v1h3.5a.5.5 0 0 1 0 1h-.538l-.853 10.66A2 2 0 0 1 11.115 16h-6.23a2 2 0 0 1-1.994-1.84L2.038 3.5H1.5a.5.5 0 0 1 0-1H5v-1A1.5 1.5 0 0 1 6.5 0h3A1.5 1.5 0 0 1 11 1.5Zm-5 0v1h4v-1a.5.5 0 0 0-.5-.5h-3a.5.5 0 0 0-.5.5ZM4.5 5.029l.5 8.5a.5.5 0 1 0 .998-.06l-.5-8.5a.5.5 0 1 0-.998.06Zm6.53-.528a.5.5 0 0 0-.528.47l-.5 8.5a.5.5 0 0 0 .998.058l.5-8.5a.5.5 0 0 0-.47-.528ZM8 4.5a.5.5 0 0 0-.5.5v8.5a.5.5 0 0 0 1 0V5a.5.5 0 0 0-.5-.5Z"/>
	</symbol>
	<symbol class="bi bi-key" id="key" viewBox="0 0 16 16">
		<path d="M0 8a4 4 0 0 1 7.465-2H14a.5.5 0 0 1 .354.146l1.5 1.5a.5.5 0 0 1 0 .708l-1.5 1.5a.5.5 0 0 1-.708 0L13 9.207l-.646.647a.5.5 0 0 1-.708 0L11 9.207l-.646.647a.5.5 0 0 1-.708 0L9 9.207l-.646.647A.5.5 0 0 1 8 10h-.535A4 4 0 0 1 0 8zm4-3a3 3 0 1 0 2.712 4.285A.5.5 0 0 1 7.163 9h.63l.853-.854a.5.5 0 0 1 .708 0l.646.647.646-.647a.5.5 0 0 1 .708 0l.646.647.646-.647a.5.5 0 0 1 .708 0l.646.647.793-.793-1-1h-6.63a.5.5 0 0 1-.451-.285A3 3 0 0 0 4 5z"/>
		<path d="M4 8a1 1 0 1 1-2 0 1 1 0 0 1 2 0z"/>
	</symbol>
	<symbol class="bi bi-key-fill" id="key-fill" viewBox="0 0 16 16">
		<path d="M3.5 11.5a3.5 3.5 0 1 1 3.163-5H14L15.5 8 14 9.5l-1-1-1 1-1-1-1 1-1-1-1 1H6.663a3.5 3.5 0 0 1-3.163 2zM2.5 9a1 1 0 1 0 0-2 1 1 0 0 0 0 2z"/>
	</symbol>
	<symbol class="bi bi-arrow-clockwise" id="arrow-clockwise" viewBox="0 0 16 16">
		<path d="M8 3a5 5 0 1 0 4.546 2.914.5.5 0 0 1 .908-.417A6 6 0 1 1 8 2v1z" fill-rule="evenodd"/>
		<path d="M8 4.466V.534a.25.25 0 0 1 .41-.192l2.36 1.966c.12.1.12.284 0 .384L8.41 4.658A.25.25 0 0 1 8 4.466z"/>
	</symbol>
	<symbol class="bi bi-arrow-counterclockwise" id="arrow-counterclockwise" viewBox="0 0 16 16">
		<path d="M8 3a5 5 0 1 1-4.546 2.914.5.5 0 0 0-.908-.417A6 6 0 1 0 8 2v1z" fill-rule="evenodd"/>
		<path d="M8 4.466V.534a.25.25 0 0 0-.41-.192L5.23 2.308a.25.25 0 0 0 0 .384l2.36 1.966A.25.25 0 0 0 8 4.466z"/>
	</symbol>
	<symbol class="bi bi-arrow-return-right" id="arrow-return-right" viewBox="0 0 16 16">
		<path d="M1.5 1.5A.5.5 0 0 0 1 2v4.8a2.5 2.5 0 0 0 2.5 2.5h9.793l-3.347 3.346a.5.5 0 0 0 .708.708l4.2-4.2a.5.5 0 0 0 0-.708l-4-4a.5.5 0 0 0-.708.708L13.293 8.3H3.5A1.5 1.5 0 0 1 2 6.8V2a.5.5 0 0 0-.5-.5z" fill-rule="evenodd"/>
	</symbol>
	<symbol class="bi bi-box-arrow-in-right" id="box-arrow-in-right" viewBox="0 0 16 16">
		<path d="M6 3.5a.5.5 0 0 1 .5-.5h8a.5.5 0 0 1 .5.5v9a.5.5 0 0 1-.5.5h-8a.5.5 0 0 1-.5-.5v-2a.5.5 0 0 0-1 0v2A1.5 1.5 0 0 0 6.5 14h8a1.5 1.5 0 0 0 1.5-1.5v-9A1.5 1.5 0 0 0 14.5 2h-8A1.5 1.5 0 0 0 5 3.5v2a.5.5 0 0 0 1 0v-2z" fill-rule="evenodd"/>
		<path d="M11.854 8.354a.5.5 0 0 0 0-.708l-3-3a.5.5 0 1 0-.708.708L10.293 7.5H1.5a.5.5 0 0 0 0 1h8.793l-2.147 2.146a.5.5 0 0 0 .708.708l3-3z" fill-rule="evenodd"/>
	</symbol>
	<symbol class="bi bi-box" id="workspaces" viewBox="0 0 16 16">
		<path d="M8.186 1.113a.5.5 0 0 0-.372 0L1.846 3.5 8 5.961 14.154 3.5zM15 4.239l-6.5 2.6v7.922l6.5-2.6V4.24zM7.5 14.762V6.838L1 4.239v7.923zM7.443.184a1.5 1.5 0 0 1 1.114 0l7.129 2.852A.5.5 0 0 1 16 3.5v8.662a1 1 0 0 1-.629.928l-7.185 2.874a.5.5 0 0 1-.372 0L.63 13.09a1 1 0 0 1-.63-.928V3.5a.5.5 0 0 1 .314-.464z"/>
	</symbol>
	<symbol class="bi bi-box-fill" id="workspace_calling" viewBox="0 0 16 16">
		<path fill-rule="evenodd" d="M15.528 2.973a.75.75 0 0 1 .472.696v8.662a.75.75 0 0 1-.472.696l-7.25 2.9a.75.75 0 0 1-.557 0l-7.25-2.9A.75.75 0 0 1 0 12.331V3.669a.75.75 0 0 1 .471-.696L7.443.184l.004-.001.274-.11a.75.75 0 0 1 .558 0l.274.11.004.001zm-1.374.527L8 5.962 1.846 3.5 1 3.839v.4l6.5 2.6v7.922l.5.2.5-.2V6.84l6.5-2.6v-.4l-.846-.339Z"/>
	</symbol>
	<symbol class="bi bi-person-circle" id="person-circle" viewBox="0 0 16 16">
		<path d="M11 6a3 3 0 1 1-6 0 3 3 0 0 1 6 0z"/>
		<path d="M0 8a8 8 0 1 1 16 0A8 8 0 0 1 0 8zm8-7a7 7 0 0 0-5.468 11.37C3.242 11.226 4.805 10 8 10s4.757 1.225 5.468 2.37A7 7 0 0 0 8 1z" fill-rule="evenodd"/>
	</symbol>
	<symbol class="bi bi-person-circle" id="user_calling" viewBox="0 0 16 16">
		<path d="M11 6a3 3 0 1 1-6 0 3 3 0 0 1 6 0z"/>
		<path d="M0 8a8 8 0 1 1 16 0A8 8 0 0 1 0 8zm8-7a7 7 0 0 0-5.468 11.37C3.242 11.226 4.805 10 8 10s4.757 1.225 5.468 2.37A7 7 0 0 0 8 1z" fill-rule="evenodd"/>
	</symbol>
	<symbol class="bi bi-soundwave" id="prompts" viewBox="0 0 16 16">
		<path d="M8.5 2a.5.5 0 0 1 .5.5v11a.5.5 0 0 1-1 0v-11a.5.5 0 0 1 .5-.5zm-2 2a.5.5 0 0 1 .5.5v7a.5.5 0 0 1-1 0v-7a.5.5 0 0 1 .5-.5zm4 0a.5.5 0 0 1 .5.5v7a.5.5 0 0 1-1 0v-7a.5.5 0 0 1 .5-.5zm-6 1.5A.5.5 0 0 1 5 6v4a.5.5 0 0 1-1 0V6a.5.5 0 0 1 .5-.5zm8 0a.5.5 0 0 1 .5.5v4a.5.5 0 0 1-1 0V6a.5.5 0 0 1 .5-.5zm-10 1A.5.5 0 0 1 3 7v2a.5.5 0 0 1-1 0V7a.5.5 0 0 1 .5-.5zm12 0a.5.5 0 0 1 .5.5v2a.5.5 0 0 1-1 0V7a.5.5 0 0 1 .5-.5z" fill-rule="evenodd"/>
	</symbol>
	<symbol class="bi bi-exclamation-circle-fill" id="fail" viewBox="0 0 16 16">
		<path d="M16 8A8 8 0 1 1 0 8a8 8 0 0 1 16 0zM8 4a.905.905 0 0 0-.9.995l.35 3.507a.552.552 0 0 0 1.1 0l.35-3.507A.905.905 0 0 0 8 4zm.002 6a1 1 0 1 0 0 2 1 1 0 0 0 0-2z"/>
	</symbol>
	<symbol class="bi bi-exclamation-circle-fill" id="warning" viewBox="0 0 16 16">
		<path d="M16 8A8 8 0 1 1 0 8a8 8 0 0 1 16 0zM8 4a.905.905 0 0 0-.9.995l.35 3.507a.552.552 0 0 0 1.1 0l.35-3.507A.905.905 0 0 0 8 4zm.002 6a1 1 0 1 0 0 2 1 1 0 0 0 0-2z"/>
	</symbol>
	<symbol class="bi bi-check-circle-fill" id="success" viewBox="0 0 16 16">
		<path d="M16 8A8 8 0 1 1 0 8a8 8 0 0 1 16 0zm-3.97-3.03a.75.75 0 0 0-1.08.022L7.477 9.417 5.384 7.323a.75.75 0 0 0-1.06 1.06L6.97 11.03a.75.75 0 0 0 1.079-.02l3.992-4.99a.75.75 0 0 0-.01-1.05z"/>
	</symbol>
	<symbol class="bi bi-info-circle-fill" id="info" viewBox="0 0 16 16">
		<path d="M8 16A8 8 0 1 0 8 0a8 8 0 0 0 0 16zm.93-9.412-1 4.705c-.07.34.029.533.304.533.194 0 .487-.07.686-.246l-.088.416c-.287.346-.92.598-1.465.598-.703 0-1.002-.422-.808-1.319l.738-3.468c.064-.293.006-.399-.287-.47l-.451-.081.082-.381 2.29-.287zM8 5.5a1 1 0 1 1 0-2 1 1 0 0 1 0 2z"/>
	</symbol>
	<symbol class="bi bi-exclamation-triangle-fill" id="danger" viewBox="0 0 16 16">
		<path d="M8.982 1.566a1.13 1.13 0 0 0-1.96 0L.165 13.233c-.457.778.091 1.767.98 1.767h13.713c.889 0 1.438-.99.98-1.767L8.982 1.566zM8 5c.535 0 .954.462.9.995l-.35 3.507a.552.552 0 0 1-1.1 0L7.1 5.995A.905.905 0 0 1 8 5zm.002 6a1 1 0 1 1 0 2 1 1 0 0 1 0-2z"/>
	</symbol>
	<symbol class="bi bi-dash-circle-fill" id="ignore" viewBox="0 0 16 16">
		<path d="M16 8A8 8 0 1 1 0 8a8 8 0 0 1 16 0zM4.5 7.5a.5.5 0 0 0 0 1h7a.5.5 0 0 0 0-1h-7z"/>
	</symbol>
	<symbol class="bi bi-x-circle-fill" id="x-circle-fill" viewBox="0 0 16 16">
		<path d="M16 8A8 8 0 1 1 0 8a8 8 0 0 1 16 0zM5.354 4.646a.5.5 0 1 0-.708.708L7.293 8l-2.647 2.646a.5.5 0 0 0 .708.708L8 8.707l2.646 2.647a.5.5 0 0 0 .708-.708L8.707 8l2.647-2.646a.5.5 0 0 0-.708-.708L8 7.293 5.354 4.646z"/>
	</symbol>
	<symbol id="cdw" viewBox="0 0 120 60" xmlns="http://www.w3.org/2000/svg" xmlns:xlink="http://www.w3.org/1999/xlink" xml:space="preserve" xmlns:serif="http://www.serif.com/" style="fill-rule:evenodd;clip-rule:evenodd;stroke-linejoin:round;stroke-miterlimit:2;">
	    <g transform="matrix(1.33333,0,0,1.33333,0,0) ">
	        <path d="M12.365,27.153C10.531,30.48 9.834,33.745 11.122,36.268C15.134,44.142 33.768,44.028 51.679,36.527C56.183,34.643 60.267,32.44 63.794,30.08C74.289,23.047 78.357,15.116 75.353,9.224C71.34,1.349 55.059,0.514 37.148,8.016C35.23,8.818 33.392,9.671 31.639,10.566L30.135,10.576C32.686,9.172 35.539,7.732 38.424,6.526C58.782,-2.003 78.986,-1.659 83.548,7.292C86.973,14.012 81.757,23.402 69.754,31.41C65.771,34.066 60.777,36.784 55.705,38.91C35.343,47.436 14.944,46.909 10.382,37.959C8.766,34.789 9.045,31.075 11.186,27.14L12.365,27.153ZM16.54,21.449C17.704,20.157 18.914,19.126 20.422,17.872L20.461,16.911C18.577,18.411 16.89,19.945 15.427,21.486L16.54,21.449Z"></path>
	        <path d="M18.07,20.927C16.601,26.484 12.123,28.673 7.608,28.673C1.233,28.673 -0.892,24.799 0.329,19.047C1.355,13.393 5.545,9.569 11.694,9.569C16.284,9.569 19.775,11.43 18.584,17.672L11.973,17.672C12.392,14.702 11.722,14.301 10.837,14.312C8.973,14.312 8.393,16.215 7.776,19.12C7.189,21.877 6.904,23.93 8.718,23.93C9.649,23.93 10.396,23.379 11.308,20.927L18.07,20.927Z"></path>
	        <path d="M27.533,14.158L28.236,14.158C29.394,14.158 29.982,14.589 30.279,15.318C30.597,16.074 30.474,17.358 30.1,19.121C29.726,20.884 29.3,22.167 28.663,22.923C28.055,23.654 27.285,24.081 26.127,24.081L25.422,24.081L27.533,14.158ZM17.503,28.205L26.459,28.205C32.052,28.205 36.352,24.811 37.519,19.323C38.667,13.933 37.173,10.035 29.893,10.035L21.366,10.035L17.503,28.205Z"></path>
	        <path d="M39.114,10.035L45.558,10.035L44.669,21.44L44.72,21.44L48.832,10.035L56.285,10.035L55.546,21.44L55.596,21.44L59.556,10.035L66.001,10.035L58.212,28.203L50.408,28.203L51.226,16.415L51.175,16.415L46.982,28.203L39.179,28.203L39.114,10.035Z"></path>
	    </g>
	</symbol>
	<symbol class="bi bi-file-spreadsheet" viewBox="0 0 16 16" id="spreadsheet">
		<path d="M2 2a2 2 0 0 1 2-2h8a2 2 0 0 1 2 2v12a2 2 0 0 1-2 2H4a2 2 0 0 1-2-2V2zm2-1a1 1 0 0 0-1 1v4h10V2a1 1 0 0 0-1-1H4zm9 6h-3v2h3V7zm0 3h-3v2h3v-2zm0 3h-3v2h2a1 1 0 0 0 1-1v-1zm-4 2v-2H6v2h3zm-4 0v-2H3v1a1 1 0 0 0 1 1h1zm-2-3h2v-2H3v2zm0-3h2V7H3v2zm3-2v2h3V7H6zm3 3H6v2h3v-2z"/>
	</symbol>
	<symbol class="bi bi-file-zip" viewBox="0 0 16 16" id="zipfile">
		<path d="M6.5 7.5a1 1 0 0 1 1-1h1a1 1 0 0 1 1 1v.938l.4 1.599a1 1 0 0 1-.416 1.074l-.93.62a1 1 0 0 1-1.109 0l-.93-.62a1 1 0 0 1-.415-1.074l.4-1.599V7.5zm2 0h-1v.938a1 1 0 0 1-.03.243l-.4 1.598.93.62.93-.62-.4-1.598a1 1 0 0 1-.03-.243V7.5z"/><path d="M2 2a2 2 0 0 1 2-2h8a2 2 0 0 1 2 2v12a2 2 0 0 1-2 2H4a2 2 0 0 1-2-2V2zm5.5-1H4a1 1 0 0 0-1 1v12a1 1 0 0 0 1 1h8a1 1 0 0 0 1-1V2a1 1 0 0 0-1-1H9v1H8v1h1v1H8v1h1v1H7.5V5h-1V4h1V3h-1V2h1V1z"/>
	</symbol>
	<symbol class="bi bi-person-workspace" viewBox="0 0 16 16" id="phone_users">
		<path d="M4 16s-1 0-1-1 1-4 5-4 5 3 5 4-1 1-1 1H4Zm4-5.95a2.5 2.5 0 1 0 0-5 2.5 2.5 0 0 0 0 5Z"/><path d="M2 1a2 2 0 0 0-2 2v9.5A1.5 1.5 0 0 0 1.5 14h.653a5.373 5.373 0 0 1 1.066-2H1V3a1 1 0 0 1 1-1h12a1 1 0 0 1 1 1v9h-2.219c.554.654.89 1.373 1.066 2h.653a1.5 1.5 0 0 0 1.5-1.5V3a2 2 0 0 0-2-2H2Z"/>
	</symbol>
	<symbol class="bi bi-person-workspace" viewBox="0 0 16 16" id="virtual_lines">
		<path d="M4 16s-1 0-1-1 1-4 5-4 5 3 5 4-1 1-1 1H4Zm4-5.95a2.5 2.5 0 1 0 0-5 2.5 2.5 0 0 0 0 5Z"/><path d="M2 1a2 2 0 0 0-2 2v9.5A1.5 1.5 0 0 0 1.5 14h.653a5.373 5.373 0 0 1 1.066-2H1V3a1 1 0 0 1 1-1h12a1 1 0 0 1 1 1v9h-2.219c.554.654.89 1.373 1.066 2h.653a1.5 1.5 0 0 0 1.5-1.5V3a2 2 0 0 0-2-2H2Z"/>
	</symbol>
	<symbol class="bi bi-voicemail" viewBox="0 0 16 16" id="voicemail_groups">
		<path d="M7 8.5A3.5 3.5 0 0 1 5.95 11h4.1a3.5 3.5 0 1 1 2.45 1h-9A3.5 3.5 0 1 1 7 8.5m-6 0a2.5 2.5 0 1 0 5 0 2.5 2.5 0 0 0-5 0m14 0a2.5 2.5 0 1 0-5 0 2.5 2.5 0 0 0 5 0"/>
	</symbol>
	<symbol class="bi bi-geo-alt" viewBox="0 0 16 16" id="emergency_locations"><path d="M12.166 8.94c-.524 1.062-1.234 2.12-1.96 3.07A31.493 31.493 0 0 1 8 14.58a31.481 31.481 0 0 1-2.206-2.57c-.726-.95-1.436-2.008-1.96-3.07C3.304 7.867 3 6.862 3 6a5 5 0 0 1 10 0c0 .862-.305 1.867-.834 2.94zM8 16s6-5.686 6-10A6 6 0 0 0 2 6c0 4.314 6 10 6 10z"/><path d="M8 8a2 2 0 1 1 0-4 2 2 0 0 1 0 4zm0 1a3 3 0 1 0 0-6 3 3 0 0 0 0 6z"/></symbol>
	<symbol class="bi bi-building" id="sites" viewBox="0 0 16 16">
		<path d="M14.763.075A.5.5 0 0 1 15 .5v15a.5.5 0 0 1-.5.5h-3a.5.5 0 0 1-.5-.5V14h-1v1.5a.5.5 0 0 1-.5.5h-9a.5.5 0 0 1-.5-.5V10a.5.5 0 0 1 .342-.474L6 7.64V4.5a.5.5 0 0 1 .276-.447l8-4a.5.5 0 0 1 .487.022zM6 8.694 1 10.36V15h5V8.694zM7 15h2v-1.5a.5.5 0 0 1 .5-.5h2a.5.5 0 0 1 .5.5V15h2V1.309l-7 3.5V15z" fill-rule="evenodd"/>
		<path d="M2 11h1v1H2v-1zm2 0h1v1H4v-1zm-2 2h1v1H2v-1zm2 0h1v1H4v-1zm4-4h1v1H8V9zm2 0h1v1h-1V9zm-2 2h1v1H8v-1zm2 0h1v1h-1v-1zm2-2h1v1h-1V9zm0 2h1v1h-1v-1zM8 7h1v1H8V7zm2 0h1v1h-1V7zm2 0h1v1h-1V7zM8 5h1v1H8V5zm2 0h1v1h-1V5zm2 0h1v1h-1V5zm0-2h1v1h-1V3z"/>
	</symbol>
	<symbol class="bi bi-building" id="locations" viewBox="0 0 16 16">
		<path d="M14.763.075A.5.5 0 0 1 15 .5v15a.5.5 0 0 1-.5.5h-3a.5.5 0 0 1-.5-.5V14h-1v1.5a.5.5 0 0 1-.5.5h-9a.5.5 0 0 1-.5-.5V10a.5.5 0 0 1 .342-.474L6 7.64V4.5a.5.5 0 0 1 .276-.447l8-4a.5.5 0 0 1 .487.022zM6 8.694 1 10.36V15h5V8.694zM7 15h2v-1.5a.5.5 0 0 1 .5-.5h2a.5.5 0 0 1 .5.5V15h2V1.309l-7 3.5V15z" fill-rule="evenodd"/>
		<path d="M2 11h1v1H2v-1zm2 0h1v1H4v-1zm-2 2h1v1H2v-1zm2 0h1v1H4v-1zm4-4h1v1H8V9zm2 0h1v1h-1V9zm-2 2h1v1H8v-1zm2 0h1v1h-1v-1zm2-2h1v1h-1V9zm0 2h1v1h-1v-1zM8 7h1v1H8V7zm2 0h1v1h-1V7zm2 0h1v1h-1V7zM8 5h1v1H8V5zm2 0h1v1h-1V5zm2 0h1v1h-1V5zm0-2h1v1h-1V3z"/>
	</symbol>
	<symbol class="bi bi-gear" id="location_calling" viewBox="0 0 16 16">
		<path d="M8 4.754a3.246 3.246 0 1 0 0 6.492 3.246 3.246 0 0 0 0-6.492zM5.754 8a2.246 2.246 0 1 1 4.492 0 2.246 2.246 0 0 1-4.492 0z"/>
		<path d="M9.796 1.343c-.527-1.79-3.065-1.79-3.592 0l-.094.319a.873.873 0 0 1-1.255.52l-.292-.16c-1.64-.892-3.433.902-2.54 2.541l.159.292a.873.873 0 0 1-.52 1.255l-.319.094c-1.79.527-1.79 3.065 0 3.592l.319.094a.873.873 0 0 1 .52 1.255l-.16.292c-.892 1.64.901 3.434 2.541 2.54l.292-.159a.873.873 0 0 1 1.255.52l.094.319c.527 1.79 3.065 1.79 3.592 0l.094-.319a.873.873 0 0 1 1.255-.52l.292.16c1.64.893 3.434-.902 2.54-2.541l-.159-.292a.873.873 0 0 1 .52-1.255l.319-.094c1.79-.527 1.79-3.065 0-3.592l-.319-.094a.873.873 0 0 1-.52-1.255l.16-.292c.893-1.64-.902-3.433-2.541-2.54l-.292.159a.873.873 0 0 1-1.255-.52l-.094-.319zm-2.633.283c.246-.835 1.428-.835 1.674 0l.094.319a1.873 1.873 0 0 0 2.693 1.115l.291-.16c.764-.415 1.6.42 1.184 1.185l-.159.292a1.873 1.873 0 0 0 1.116 2.692l.318.094c.835.246.835 1.428 0 1.674l-.319.094a1.873 1.873 0 0 0-1.115 2.693l.16.291c.415.764-.42 1.6-1.185 1.184l-.291-.159a1.873 1.873 0 0 0-2.693 1.116l-.094.318c-.246.835-1.428.835-1.674 0l-.094-.319a1.873 1.873 0 0 0-2.692-1.115l-.292.16c-.764.415-1.6-.42-1.184-1.185l.159-.291A1.873 1.873 0 0 0 1.945 8.93l-.319-.094c-.835-.246-.835-1.428 0-1.674l.319-.094A1.873 1.873 0 0 0 3.06 4.377l-.16-.292c-.415-.764.42-1.6 1.185-1.184l.292.159a1.873 1.873 0 0 0 2.692-1.115l.094-.319z"/>
	</symbol>
		<symbol class="bi bi-clipboard" id="templates" viewBox="0 0 16 16">
		<path d="M4 1.5H3a2 2 0 0 0-2 2V14a2 2 0 0 0 2 2h10a2 2 0 0 0 2-2V3.5a2 2 0 0 0-2-2h-1v1h1a1 1 0 0 1 1 1V14a1 1 0 0 1-1 1H3a1 1 0 0 1-1-1V3.5a1 1 0 0 1 1-1h1v-1z"/>
		<path d="M9.5 1a.5.5 0 0 1 .5.5v1a.5.5 0 0 1-.5.5h-3a.5.5 0 0 1-.5-.5v-1a.5.5 0 0 1 .5-.5h3zm-3-1A1.5 1.5 0 0 0 5 1.5v1A1.5 1.5 0 0 0 6.5 4h3A1.5 1.5 0 0 0 11 2.5v-1A1.5 1.5 0 0 0 9.5 0h-3z"/>
	</symbol>
	<symbol class="bi bi-telephone" id="numbers" viewBox="0 0 16 16">
		<path d="M3.654 1.328a.678.678 0 0 0-1.015-.063L1.605 2.3c-.483.484-.661 1.169-.45 1.77a17.568 17.568 0 0 0 4.168 6.608 17.569 17.569 0 0 0 6.608 4.168c.601.211 1.286.033 1.77-.45l1.034-1.034a.678.678 0 0 0-.063-1.015l-2.307-1.794a.678.678 0 0 0-.58-.122l-2.19.547a1.745 1.745 0 0 1-1.657-.459L5.482 8.062a1.745 1.745 0 0 1-.46-1.657l.548-2.19a.678.678 0 0 0-.122-.58L3.654 1.328zM1.884.511a1.745 1.745 0 0 1 2.612.163L6.29 2.98c.329.423.445.974.315 1.494l-.547 2.19a.678.678 0 0 0 .178.643l2.457 2.457a.678.678 0 0 0 .644.178l2.189-.547a1.745 1.745 0 0 1 1.494.315l2.306 1.794c.829.645.905 1.87.163 2.611l-1.034 1.034c-.74.74-1.846 1.065-2.877.702a18.634 18.634 0 0 1-7.01-4.42 18.634 18.634 0 0 1-4.42-7.009c-.362-1.03-.037-2.137.703-2.877L1.885.511z"/>
	</symbol>
	<symbol class="bi bi-telephone" id="phone_numbers" viewBox="0 0 16 16">
		<path d="M3.654 1.328a.678.678 0 0 0-1.015-.063L1.605 2.3c-.483.484-.661 1.169-.45 1.77a17.568 17.568 0 0 0 4.168 6.608 17.569 17.569 0 0 0 6.608 4.168c.601.211 1.286.033 1.77-.45l1.034-1.034a.678.678 0 0 0-.063-1.015l-2.307-1.794a.678.678 0 0 0-.58-.122l-2.19.547a1.745 1.745 0 0 1-1.657-.459L5.482 8.062a1.745 1.745 0 0 1-.46-1.657l.548-2.19a.678.678 0 0 0-.122-.58L3.654 1.328zM1.884.511a1.745 1.745 0 0 1 2.612.163L6.29 2.98c.329.423.445.974.315 1.494l-.547 2.19a.678.678 0 0 0 .178.643l2.457 2.457a.678.678 0 0 0 .644.178l2.189-.547a1.745 1.745 0 0 1 1.494.315l2.306 1.794c.829.645.905 1.87.163 2.611l-1.034 1.034c-.74.74-1.846 1.065-2.877.702a18.634 18.634 0 0 1-7.01-4.42 18.634 18.634 0 0 1-4.42-7.009c-.362-1.03-.037-2.137.703-2.877L1.885.511z"/>
	</symbol>
	<symbol class="bi bi-webcam" id="devices" viewBox="0 0 16 16">
		<path d="M0 6a2 2 0 0 1 2-2h12a2 2 0 0 1 2 2v3a2 2 0 0 1-2 2H9.269c.144.162.33.324.531.475a6.785 6.785 0 0 0 .907.57l.014.006.003.002A.5.5 0 0 1 10.5 13h-5a.5.5 0 0 1-.224-.947l.003-.002.014-.007a4.473 4.473 0 0 0 .268-.148 6.75 6.75 0 0 0 .639-.421c.2-.15.387-.313.531-.475H2a2 2 0 0 1-2-2V6Zm2-1a1 1 0 0 0-1 1v3a1 1 0 0 0 1 1h12a1 1 0 0 0 1-1V6a1 1 0 0 0-1-1H2Z"/>
		<path d="M8 6.5a1 1 0 1 0 0 2 1 1 0 0 0 0-2Zm-2 1a2 2 0 1 1 4 0 2 2 0 0 1-4 0Zm7 0a.5.5 0 1 1-1 0 .5.5 0 0 1 1 0Z"/>
	</symbol>
	<symbol class="bi bi-webcam" id="device_settings" viewBox="0 0 16 16">
		<path d="M0 6a2 2 0 0 1 2-2h12a2 2 0 0 1 2 2v3a2 2 0 0 1-2 2H9.269c.144.162.33.324.531.475a6.785 6.785 0 0 0 .907.57l.014.006.003.002A.5.5 0 0 1 10.5 13h-5a.5.5 0 0 1-.224-.947l.003-.002.014-.007a4.473 4.473 0 0 0 .268-.148 6.75 6.75 0 0 0 .639-.421c.2-.15.387-.313.531-.475H2a2 2 0 0 1-2-2V6Zm2-1a1 1 0 0 0-1 1v3a1 1 0 0 0 1 1h12a1 1 0 0 0 1-1V6a1 1 0 0 0-1-1H2Z"/>
		<path d="M8 6.5a1 1 0 1 0 0 2 1 1 0 0 0 0-2Zm-2 1a2 2 0 1 1 4 0 2 2 0 0 1-4 0Zm7 0a.5.5 0 1 1-1 0 .5.5 0 0 1 1 0Z"/>
	</symbol>
	<symbol class="bi bi-bookmark" id="bookmark" viewBox="0 0 16 16">
		<path d="M2 2a2 2 0 0 1 2-2h8a2 2 0 0 1 2 2v13.5a.5.5 0 0 1-.777.416L8 13.101l-5.223 2.815A.5.5 0 0 1 2 15.5V2zm2-1a1 1 0 0 0-1 1v12.566l4.723-2.482a.5.5 0 0 1 .554 0L13 14.566V2a1 1 0 0 0-1-1H4z"/>
	</symbol>
		<symbol class="bi bi-file-text" id="skills" viewBox="0 0 16 16">
		<path d="M5 4a.5.5 0 0 0 0 1h6a.5.5 0 0 0 0-1H5zm-.5 2.5A.5.5 0 0 1 5 6h6a.5.5 0 0 1 0 1H5a.5.5 0 0 1-.5-.5zM5 8a.5.5 0 0 0 0 1h6a.5.5 0 0 0 0-1H5zm0 2a.5.5 0 0 0 0 1h3a.5.5 0 0 0 0-1H5z"/>
		<path d="M2 2a2 2 0 0 1 2-2h8a2 2 0 0 1 2 2v12a2 2 0 0 1-2 2H4a2 2 0 0 1-2-2V2zm10-1H4a1 1 0 0 0-1 1v12a1 1 0 0 0 1 1h8a1 1 0 0 0 1-1V2a1 1 0 0 0-1-1z"/>
	</symbol>
		<symbol class="bi bi-files" id="skill_profiles" viewBox="0 0 16 16">
		<path d="M13 0H6a2 2 0 0 0-2 2 2 2 0 0 0-2 2v10a2 2 0 0 0 2 2h7a2 2 0 0 0 2-2 2 2 0 0 0 2-2V2a2 2 0 0 0-2-2zm0 13V4a2 2 0 0 0-2-2H5a1 1 0 0 1 1-1h7a1 1 0 0 1 1 1v10a1 1 0 0 1-1 1zM3 4a1 1 0 0 1 1-1h7a1 1 0 0 1 1 1v10a1 1 0 0 1-1 1H4a1 1 0 0 1-1-1V4z"/>
	</symbol>
	<symbol class="bi bi-collection" id="common_areas" viewBox="0 0 16 16">
		<path d="M2.5 3.5a.5.5 0 0 1 0-1h11a.5.5 0 0 1 0 1h-11zm2-2a.5.5 0 0 1 0-1h7a.5.5 0 0 1 0 1h-7zM0 13a1.5 1.5 0 0 0 1.5 1.5h13A1.5 1.5 0 0 0 16 13V6a1.5 1.5 0 0 0-1.5-1.5h-13A1.5 1.5 0 0 0 0 6v7zm1.5.5A.5.5 0 0 1 1 13V6a.5.5 0 0 1 .5-.5h13a.5.5 0 0 1 .5.5v7a.5.5 0 0 1-.5.5h-13z"/>
	</symbol>
	<symbol class="bi bi-person-lines-fill" id="external_contacts" viewBox="0 0 16 16">
		<path d="M6 8a3 3 0 1 0 0-6 3 3 0 0 0 0 6m-5 6s-1 0-1-1 1-4 6-4 6 3 6 4-1 1-1 1zM11 3.5a.5.5 0 0 1 .5-.5h4a.5.5 0 0 1 0 1h-4a.5.5 0 0 1-.5-.5m.5 2.5a.5.5 0 0 0 0 1h4a.5.5 0 0 0 0-1zm2 3a.5.5 0 0 0 0 1h2a.5.5 0 0 0 0-1zm0 3a.5.5 0 0 0 0 1h2a.5.5 0 0 0 0-1z"/>
	</symbol>
		<symbol class="bi bi-question-circle" id="question-circle" viewBox="0 0 16 16">
		<path d="M8 15A7 7 0 1 1 8 1a7 7 0 0 1 0 14zm0 1A8 8 0 1 0 8 0a8 8 0 0 0 0 16z"/>
		<path d="M5.255 5.786a.237.237 0 0 0 .241.247h.825c.138 0 .248-.113.266-.25.09-.656.54-1.134 1.342-1.134.686 0 1.314.343 1.314 1.168 0 .635-.374.927-.965 1.371-.673.489-1.206 1.06-1.168 1.987l.003.217a.25.25 0 0 0 .25.246h.811a.25.25 0 0 0 .25-.25v-.105c0-.718.273-.927 1.01-1.486.609-.463 1.244-.977 1.244-2.056 0-1.511-1.276-2.241-2.673-2.241-1.267 0-2.655.59-2.75 2.286zm1.557 5.763c0 .533.425.927 1.01.927.609 0 1.028-.394 1.028-.927 0-.552-.42-.94-1.029-.94-.584 0-1.009.388-1.009.94z"/>
	</symbol>
		<symbol class="bi bi-question-circle" id="question-circle" viewBox="0 0 16 16">
		<path d="M8 15A7 7 0 1 1 8 1a7 7 0 0 1 0 14zm0 1A8 8 0 1 0 8 0a8 8 0 0 0 0 16z"/>
		<path d="M5.255 5.786a.237.237 0 0 0 .241.247h.825c.138 0 .248-.113.266-.25.09-.656.54-1.134 1.342-1.134.686 0 1.314.343 1.314 1.168 0 .635-.374.927-.965 1.371-.673.489-1.206 1.06-1.168 1.987l.003.217a.25.25 0 0 0 .25.246h.811a.25.25 0 0 0 .25-.25v-.105c0-.718.273-.927 1.01-1.486.609-.463 1.244-.977 1.244-2.056 0-1.511-1.276-2.241-2.673-2.241-1.267 0-2.655.59-2.75 2.286zm1.557 5.763c0 .533.425.927 1.01.927.609 0 1.028-.394 1.028-.927 0-.552-.42-.94-1.029-.94-.584 0-1.009.388-1.009.94z"/>
	</symbol>
	<symbol class="bi bi-house" id="house" viewBox="0 0 16 16">
        <path d="M8.707 1.5a1 1 0 0 0-1.414 0L.646 8.146a.5.5 0 0 0 .708.708L2 8.207V13.5A1.5 1.5 0 0 0 3.5 15h9a1.5 1.5 0 0 0 1.5-1.5V8.207l.646.647a.5.5 0 0 0 .708-.708L13 5.793V2.5a.5.5 0 0 0-.5-.5h-1a.5.5 0 0 0-.5.5v1.293L8.707 1.5ZM13 7.207V13.5a.5.5 0 0 1-.5.5h-9a.5.5 0 0 1-.5-.5V7.207l5-5 5 5Z"/>
    </symbol>
		<symbol class="bi bi-arrow-bar-left" id="arrow-bar-left" viewBox="0 0 16 16">
		<path d="M12.5 15a.5.5 0 0 1-.5-.5v-13a.5.5 0 0 1 1 0v13a.5.5 0 0 1-.5.5zM10 8a.5.5 0 0 1-.5.5H3.707l2.147 2.146a.5.5 0 0 1-.708.708l-3-3a.5.5 0 0 1 0-.708l3-3a.5.5 0 1 1 .708.708L3.707 7.5H9.5a.5.5 0 0 1 .5.5z" fill-rule="evenodd"/>
	</symbol>
	<symbol class="bi bi-arrow-bar-right" id="arrow-bar-right" viewBox="0 0 16 16">
		<path d="M6 8a.5.5 0 0 0 .5.5h5.793l-2.147 2.146a.5.5 0 0 0 .708.708l3-3a.5.5 0 0 0 0-.708l-3-3a.5.5 0 0 0-.708.708L12.293 7.5H6.5A.5.5 0 0 0 6 8zm-2.5 7a.5.5 0 0 1-.5-.5v-13a.5.5 0 0 1 1 0v13a.5.5 0 0 1-.5.5z" fill-rule="evenodd"/>
	</symbol>
	<symbol class="bi bi-geo-alt-fill" id="emergency_addresses" viewBox="0 0 16 16">
		<path d="M8 16s6-5.686 6-10A6 6 0 0 0 2 6c0 4.314 6 10 6 10m0-7a3 3 0 1 1 0-6 3 3 0 0 1 0 6"/>
	</symbol>
	<symbol class="bi bi-hdd-network" id="subnets" viewBox="0 0 16 16">
		<path d="M4.5 5a.5.5 0 1 0 0-1 .5.5 0 0 0 0 1M3 4.5a.5.5 0 1 1-1 0 .5.5 0 0 1 1 0"/>
		<path d="M0 4a2 2 0 0 1 2-2h12a2 2 0 0 1 2 2v1a2 2 0 0 1-2 2H8.5v3a1.5 1.5 0 0 1 1.5 1.5h5.5a.5.5 0 0 1 0 1H10A1.5 1.5 0 0 1 8.5 14h-1A1.5 1.5 0 0 1 6 12.5H.5a.5.5 0 0 1 0-1H6A1.5 1.5 0 0 1 7.5 10V7H2a2 2 0 0 1-2-2zm1 0v1a1 1 0 0 0 1 1h12a1 1 0 0 0 1-1V4a1 1 0 0 0-1-1H2a1 1 0 0 0-1 1m6 7.5v1a.5.5 0 0 0 .5.5h1a.5.5 0 0 0 .5-.5v-1a.5.5 0 0 0-.5-.5h-1a.5.5 0 0 0-.5.5"/>
	</symbol>
	<symbol class="bi bi-hdd-rack" id="switches" viewBox="0 0 16 16">
		<path d="M4.5 5a.5.5 0 1 0 0-1 .5.5 0 0 0 0 1M3 4.5a.5.5 0 1 1-1 0 .5.5 0 0 1 1 0m2 7a.5.5 0 1 1-1 0 .5.5 0 0 1 1 0m-2.5.5a.5.5 0 1 0 0-1 .5.5 0 0 0 0 1"/>
		<path d="M2 2a2 2 0 0 0-2 2v1a2 2 0 0 0 2 2h1v2H2a2 2 0 0 0-2 2v1a2 2 0 0 0 2 2h12a2 2 0 0 0 2-2v-1a2 2 0 0 0-2-2h-1V7h1a2 2 0 0 0 2-2V4a2 2 0 0 0-2-2zm13 2v1a1 1 0 0 1-1 1H2a1 1 0 0 1-1-1V4a1 1 0 0 1 1-1h12a1 1 0 0 1 1 1m0 7v1a1 1 0 0 1-1 1H2a1 1 0 0 1-1-1v-1a1 1 0 0 1 1-1h12a1 1 0 0 1 1 1m-3-4v2H4V7z"/>
	</symbol>
	<symbol class="bi bi-ethernet" id="ports" viewBox="0 0 16 16">
  		<path d="M14 13.5v-7a.5.5 0 0 0-.5-.5H12V4.5a.5.5 0 0 0-.5-.5h-1v-.5A.5.5 0 0 0 10 3H6a.5.5 0 0 0-.5.5V4h-1a.5.5 0 0 0-.5.5V6H2.5a.5.5 0 0 0-.5.5v7a.5.5 0 0 0 .5.5h11a.5.5 0 0 0 .5-.5M3.75 11h.5a.25.25 0 0 1 .25.25v1.5a.25.25 0 0 1-.25.25h-.5a.25.25 0 0 1-.25-.25v-1.5a.25.25 0 0 1 .25-.25m2 0h.5a.25.25 0 0 1 .25.25v1.5a.25.25 0 0 1-.25.25h-.5a.25.25 0 0 1-.25-.25v-1.5a.25.25 0 0 1 .25-.25m1.75.25a.25.25 0 0 1 .25-.25h.5a.25.25 0 0 1 .25.25v1.5a.25.25 0 0 1-.25.25h-.5a.25.25 0 0 1-.25-.25zM9.75 11h.5a.25.25 0 0 1 .25.25v1.5a.25.25 0 0 1-.25.25h-.5a.25.25 0 0 1-.25-.25v-1.5a.25.25 0 0 1 .25-.25m1.75.25a.25.25 0 0 1 .25-.25h.5a.25.25 0 0 1 .25.25v1.5a.25.25 0 0 1-.25.25h-.5a.25.25 0 0 1-.25-.25z"/>
  		<path d="M2 0a2 2 0 0 0-2 2v12a2 2 0 0 0 2 2h12a2 2 0 0 0 2-2V2a2 2 0 0 0-2-2zM1 2a1 1 0 0 1 1-1h12a1 1 0 0 1 1 1v12a1 1 0 0 1-1 1H2a1 1 0 0 1-1-1z"/>
	</symbol>
	<symbol class="bi bi-wifi" id="wireless_access_points" viewBox="0 0 16 16">
		<path d="M15.384 6.115a.485.485 0 0 0-.047-.736A12.44 12.44 0 0 0 8 3C5.259 3 2.723 3.882.663 5.379a.485.485 0 0 0-.048.736.52.52 0 0 0 .668.05A11.45 11.45 0 0 1 8 4c2.507 0 4.827.802 6.716 2.164.205.148.49.13.668-.049"/>
		<path d="M13.229 8.271a.482.482 0 0 0-.063-.745A9.46 9.46 0 0 0 8 6c-1.905 0-3.68.56-5.166 1.526a.48.48 0 0 0-.063.745.525.525 0 0 0 .652.065A8.46 8.46 0 0 1 8 7a8.46 8.46 0 0 1 4.576 1.336c.206.132.48.108.653-.065m-2.183 2.183c.226-.226.185-.605-.1-.75A6.5 6.5 0 0 0 8 9c-1.06 0-2.062.254-2.946.704-.285.145-.326.524-.1.75l.015.015c.16.16.407.19.611.09A5.5 5.5 0 0 1 8 10c.868 0 1.69.201 2.42.56.203.1.45.07.61-.091zM9.06 12.44c.196-.196.198-.52-.04-.66A2 2 0 0 0 8 11.5a2 2 0 0 0-1.02.28c-.238.14-.236.464-.04.66l.706.706a.5.5 0 0 0 .707 0l.707-.707z"/>
	</symbol>
	<symbol class="bi bi-diagram-2" id="auto_receptionists" viewBox="0 0 16 16">
		<path d="M6 3.5A1.5 1.5 0 0 1 7.5 2h1A1.5 1.5 0 0 1 10 3.5v1A1.5 1.5 0 0 1 8.5 6v1H11a.5.5 0 0 1 .5.5v1a.5.5 0 0 1-1 0V8h-5v.5a.5.5 0 0 1-1 0v-1A.5.5 0 0 1 5 7h2.5V6A1.5 1.5 0 0 1 6 4.5v-1zM8.5 5a.5.5 0 0 0 .5-.5v-1a.5.5 0 0 0-.5-.5h-1a.5.5 0 0 0-.5.5v1a.5.5 0 0 0 .5.5h1zM3 11.5A1.5 1.5 0 0 1 4.5 10h1A1.5 1.5 0 0 1 7 11.5v1A1.5 1.5 0 0 1 5.5 14h-1A1.5 1.5 0 0 1 3 12.5v-1zm1.5-.5a.5.5 0 0 0-.5.5v1a.5.5 0 0 0 .5.5h1a.5.5 0 0 0 .5-.5v-1a.5.5 0 0 0-.5-.5h-1zm4.5.5a1.5 1.5 0 0 1 1.5-1.5h1a1.5 1.5 0 0 1 1.5 1.5v1a1.5 1.5 0 0 1-1.5 1.5h-1A1.5 1.5 0 0 1 9 12.5v-1zm1.5-.5a.5.5 0 0 0-.5.5v1a.5.5 0 0 0 .5.5h1a.5.5 0 0 0 .5-.5v-1a.5.5 0 0 0-.5-.5h-1z" fill-rule="evenodd"/>
	</symbol>
	<symbol  class="bi bi-terminal" id="terminal" viewBox="0 0 16 16">
      <path d="M6 9a.5.5 0 0 1 .5-.5h3a.5.5 0 0 1 0 1h-3A.5.5 0 0 1 6 9M3.854 4.146a.5.5 0 1 0-.708.708L4.793 6.5 3.146 8.146a.5.5 0 1 0 .708.708l2-2a.5.5 0 0 0 0-.708z"/>
      <path d="M2 1a2 2 0 0 0-2 2v10a2 2 0 0 0 2 2h12a2 2 0 0 0 2-2V3a2 2 0 0 0-2-2zm12 1a1 1 0 0 1 1 1v10a1 1 0 0 1-1 1H2a1 1 0 0 1-1-1V3a1 1 0 0 1 1-1z"/>
    </symbol>
	<symbol class="bi bi-tools" id="tools" viewBox="0 0 16 16">
      <path d="M1 0 0 1l2.2 3.081a1 1 0 0 0 .815.419h.07a1 1 0 0 1 .708.293l2.675 2.675-2.617 2.654A3.003 3.003 0 0 0 0 13a3 3 0 1 0 5.878-.851l2.654-2.617.968.968-.305.914a1 1 0 0 0 .242 1.023l3.27 3.27a.997.997 0 0 0 1.414 0l1.586-1.586a.997.997 0 0 0 0-1.414l-3.27-3.27a1 1 0 0 0-1.023-.242L10.5 9.5l-.96-.96 2.68-2.643A3.005 3.005 0 0 0 16 3q0-.405-.102-.777l-2.14 2.141L12 4l-.364-1.757L13.777.102a3 3 0 0 0-3.675 3.68L7.462 6.46 4.793 3.793a1 1 0 0 1-.293-.707v-.071a1 1 0 0 0-.419-.814zm9.646 10.646a.5.5 0 0 1 .708 0l2.914 2.915a.5.5 0 0 1-.707.707l-2.915-2.914a.5.5 0 0 1 0-.708M3 11l.471.242.529.026.287.445.445.287.026.529L5 13l-.242.471-.026.529-.445.287-.287.445-.529.026L3 15l-.471-.242L2 14.732l-.287-.445L1.268 14l-.026-.529L1 13l.242-.471.026-.529.445-.287.287-.445.529-.026z"/>
    </symbol>
	<symbol class="bi bi-123" id="trusted_ips" viewBox="0 0 16 16">
		<path d="M2.873 11.297V4.142H1.699L0 5.379v1.137l1.64-1.18h.06v5.961zm3.213-5.09v-.063c0-.618.44-1.169 1.196-1.169.676 0 1.174.44 1.174 1.106 0 .624-.42 1.101-.807 1.526L4.99 10.553v.744h4.78v-.99H6.643v-.069L8.41 8.252c.65-.724 1.237-1.332 1.237-2.27C9.646 4.849 8.723 4 7.308 4c-1.573 0-2.36 1.064-2.36 2.15v.057zm6.559 1.883h.786c.823 0 1.374.481 1.379 1.179.01.707-.55 1.216-1.421 1.21-.77-.005-1.326-.419-1.379-.953h-1.095c.042 1.053.938 1.918 2.464 1.918 1.478 0 2.642-.839 2.62-2.144-.02-1.143-.922-1.651-1.551-1.714v-.063c.535-.09 1.347-.66 1.326-1.678-.026-1.053-.933-1.855-2.359-1.845-1.5.005-2.317.88-2.348 1.898h1.116c.032-.498.498-.944 1.206-.944.703 0 1.206.435 1.206 1.07.005.64-.504 1.106-1.2 1.106h-.75z"/>
	</symbol>
	<symbol class="bi bi-eye-fill" id="eye-fill" viewBox="0 0 16 16">
		<path d="M10.5 8a2.5 2.5 0 1 1-5 0 2.5 2.5 0 0 1 5 0z"/>
		<path d="M0 8s3-5.5 8-5.5S16 8 16 8s-3 5.5-8 5.5S0 8 0 8zm8 3.5a3.5 3.5 0 1 0 0-7 3.5 3.5 0 0 0 0 7z"/>
	</symbol>
	<symbol class="bi bi-file-text" id="emergency_calling_policies" viewBox="0 0 16 16">
		<path d="M5 4a.5.5 0 0 0 0 1h6a.5.5 0 0 0 0-1H5zm-.5 2.5A.5.5 0 0 1 5 6h6a.5.5 0 0 1 0 1H5a.5.5 0 0 1-.5-.5zM5 8a.5.5 0 0 0 0 1h6a.5.5 0 0 0 0-1H5zm0 2a.5.5 0 0 0 0 1h3a.5.5 0 0 0 0-1H5z"/>
		<path d="M2 2a2 2 0 0 1 2-2h8a2 2 0 0 1 2 2v12a2 2 0 0 1-2 2H4a2 2 0 0 1-2-2V2zm10-1H4a1 1 0 0 0-1 1v12a1 1 0 0 0 1 1h8a1 1 0 0 0 1-1V2a1 1 0 0 0-1-1z"/>
	</symbol>
	<symbol class="bi bi-diagram-2-fill" id="network_sites" viewBox="0 0 16 16">
		<path fill-rule="evenodd" d="M6 3.5A1.5 1.5 0 0 1 7.5 2h1A1.5 1.5 0 0 1 10 3.5v1A1.5 1.5 0 0 1 8.5 6v1H11a.5.5 0 0 1 .5.5v1a.5.5 0 0 1-1 0V8h-5v.5a.5.5 0 0 1-1 0v-1A.5.5 0 0 1 5 7h2.5V6A1.5 1.5 0 0 1 6 4.5zm-3 8A1.5 1.5 0 0 1 4.5 10h1A1.5 1.5 0 0 1 7 11.5v1A1.5 1.5 0 0 1 5.5 14h-1A1.5 1.5 0 0 1 3 12.5zm6 0a1.5 1.5 0 0 1 1.5-1.5h1a1.5 1.5 0 0 1 1.5 1.5v1a1.5 1.5 0 0 1-1.5 1.5h-1A1.5 1.5 0 0 1 9 12.5z"/>
	</symbol>
</svg>
